<?xml version="1.0" encoding="utf-8"?>
<!-- Generator: Adobe Illustrator 25.2.1, SVG Export Plug-In . SVG Version: 6.00 Build 0)  -->
<svg version="1.1" id="Warstwa_2" xmlns="http://www.w3.org/2000/svg" xmlns:xlink="http://www.w3.org/1999/xlink" x="0px" y="0px"
	 viewBox="0 0 864.89 177.48" style="enable-background:new 0 0 864.89 177.48;" xml:space="preserve">
<style type="text/css">
	.st0{fill:none;stroke:#F28F39;stroke-width:8;stroke-linecap:round;stroke-miterlimit:10;}
	.st1{fill:none;stroke:#F28F39;stroke-width:8;stroke-linecap:round;stroke-linejoin:round;stroke-miterlimit:10;}
</style>
<g>
	<path class="st0" d="M735.72,31.74c6.74-16.44,22.8-27.25,40.55-27.28c17.66-0.03,33.69,10.61,40.55,26.91"/>
	<path class="st0" d="M814.92,73.43c1.81,1.03,12.92,7.09,25.77,2.65c3.31-1.14,10.32-3.23,15.15-11.63
		c5.53-9.63,4.12-20.5,3.42-23.61c-0.7-3.09-3.09-14.84-15.35-20.65c-9.79-4.64-22.42-4.24-31.68,2.91"/>
	<path class="st0" d="M733.45,74.82c-1.98,0.7-17.02,5.73-28.8-0.25c-1.94-0.99-13.64-7.19-16.29-20.84
		c-2.64-13.6,5.82-23.67,7.58-25.77c2.1-2.5,9.13-8.86,21.03-9.85c12.73-1.06,21.19,5.1,22.55,6.4"/>
	<line class="st1" x1="829.4" y1="106.42" x2="831.22" y2="77.89"/>
	<polyline class="st1" points="722.49,77.68 728.15,173.09 825.16,173.09 827.33,138.99 	"/>
	<line class="st1" x1="828.69" y1="123.7" x2="828.69" y2="123.7"/>
	<line class="st1" x1="727.31" y1="158.93" x2="826.06" y2="158.93"/>
	<line class="st1" x1="754.67" y1="158.93" x2="754.67" y2="145.55"/>
	<line class="st1" x1="799.14" y1="158.93" x2="799.14" y2="145.55"/>
</g>
<g>
	<path d="M6.79,85.34h31.92V60.18c0-0.61,0.21-1.13,0.64-1.54c0.43-0.41,0.95-0.62,1.56-0.62c0.61,0,1.13,0.21,1.54,0.62
		c0.41,0.41,0.62,0.93,0.62,1.54v54.56c0,0.61-0.21,1.13-0.62,1.54s-0.93,0.62-1.54,0.62c-0.61,0-1.13-0.21-1.56-0.62
		c-0.43-0.41-0.64-0.93-0.64-1.54V89.76H6.79v24.98c0,0.61-0.21,1.13-0.62,1.54s-0.93,0.62-1.54,0.62c-0.61,0-1.13-0.21-1.56-0.62
		c-0.43-0.41-0.64-0.93-0.64-1.54V60.18c0-0.61,0.21-1.13,0.64-1.54c0.43-0.41,0.95-0.62,1.56-0.62c0.61,0,1.13,0.21,1.54,0.62
		c0.41,0.41,0.62,0.93,0.62,1.54V85.34z"/>
	<path d="M113.71,59.95c3.63,1.56,6.81,3.7,9.52,6.42c2.71,2.71,4.86,5.88,6.44,9.5c1.58,3.62,2.37,7.5,2.37,11.64
		c0,2.76-0.36,5.42-1.08,7.98c-0.72,2.56-1.73,4.95-3.01,7.15c-1.29,2.21-2.85,4.23-4.69,6.07s-3.86,3.4-6.07,4.69
		s-4.59,2.29-7.15,3.01c-2.56,0.72-5.22,1.08-7.98,1.08c-2.76,0-5.42-0.36-7.98-1.08c-2.56-0.72-4.95-1.73-7.15-3.01
		c-2.21-1.29-4.22-2.85-6.03-4.69c-1.81-1.84-3.36-3.86-4.65-6.07s-2.28-4.59-2.99-7.15c-0.71-2.56-1.06-5.22-1.06-7.98
		c0-2.76,0.35-5.41,1.06-7.96c0.71-2.54,1.7-4.92,2.99-7.13s2.84-4.22,4.65-6.05c1.81-1.82,3.82-3.39,6.03-4.69
		c2.21-1.3,4.59-2.31,7.15-3.01c2.56-0.71,5.22-1.06,7.98-1.06C106.19,57.6,110.08,58.39,113.71,59.95z M95.29,62.92
		c-2.18,0.6-4.21,1.45-6.09,2.55c-1.89,1.1-3.6,2.43-5.15,3.98c-1.55,1.55-2.88,3.27-3.98,5.15c-1.1,1.89-1.96,3.92-2.55,6.09
		c-0.6,2.18-0.9,4.45-0.9,6.81c0,3.56,0.66,6.88,1.98,9.98c1.32,3.1,3.13,5.8,5.43,8.12c2.3,2.32,5,4.14,8.1,5.47
		c3.1,1.33,6.42,2,9.98,2c3.53,0,6.84-0.67,9.94-2c3.1-1.33,5.8-3.16,8.12-5.47c2.31-2.31,4.14-5.02,5.47-8.12
		c1.33-3.1,2-6.42,2-9.98c0-3.53-0.67-6.84-2-9.94c-1.33-3.1-3.16-5.8-5.47-8.1c-2.32-2.3-5.02-4.12-8.12-5.45
		c-3.1-1.33-6.41-2-9.94-2C99.74,62.02,97.47,62.32,95.29,62.92z"/>
	<path d="M166.04,68.64l-6.03,46.18c-0.06,0.61-0.33,1.1-0.8,1.45c-0.48,0.35-1.02,0.48-1.63,0.39c-0.61-0.09-1.1-0.37-1.47-0.83
		c-0.37-0.46-0.51-1-0.41-1.61l7.08-54.05c0.09-0.67,0.41-1.18,0.97-1.52l0.46-0.23c0.55-0.25,1.11-0.26,1.68-0.05
		c0.57,0.22,0.97,0.6,1.22,1.15l20.19,49.63l20.19-49.63c0.25-0.52,0.62-0.89,1.13-1.1c0.51-0.21,1.04-0.23,1.59-0.05
		c0.43,0.12,0.78,0.35,1.06,0.69s0.44,0.72,0.51,1.15l6.81,54.05c0.06,0.61-0.09,1.15-0.46,1.61c-0.37,0.46-0.86,0.74-1.47,0.83
		c-0.61,0.06-1.16-0.08-1.63-0.44c-0.48-0.35-0.74-0.83-0.81-1.45l-5.8-45.95l-19.09,46.74c-0.03,0.03-0.05,0.06-0.05,0.09
		c-0.03,0.03-0.05,0.06-0.05,0.09c-0.03,0.03-0.05,0.06-0.05,0.09c-0.28,0.52-0.67,0.87-1.2,1.06c-0.52,0.18-1.04,0.17-1.56-0.05
		l-0.23-0.14c-0.03,0-0.08-0.03-0.14-0.09c-0.34-0.25-0.6-0.57-0.78-0.97L166.04,68.64z"/>
	<path d="M248.47,116.9c-0.61-0.06-1.1-0.31-1.47-0.74c-0.37-0.43-0.55-0.95-0.55-1.56V60.23c0-0.67,0.23-1.21,0.69-1.61
		c0.46-0.4,1-0.6,1.61-0.6h26.96c0.61,0,1.13,0.21,1.54,0.62c0.41,0.41,0.62,0.94,0.62,1.59c0,0.61-0.21,1.13-0.62,1.54
		s-0.93,0.62-1.54,0.62h-24.89v22.95h18.54c0.61-0.03,1.13,0.17,1.54,0.6c0.41,0.43,0.62,0.95,0.62,1.56c0,0.61-0.21,1.12-0.62,1.52
		c-0.41,0.4-0.93,0.6-1.54,0.6h-18.54v22.91h24.89c0.61,0,1.13,0.21,1.54,0.62s0.62,0.93,0.62,1.54c0,0.61-0.21,1.14-0.62,1.59
		c-0.41,0.44-0.93,0.65-1.54,0.62H248.47z"/>
	<path d="M352.41,68.05c0.01,0.58-0.19,1.09-0.62,1.52c-0.43,0.43-0.95,0.64-1.56,0.64c-0.61,0-1.14-0.21-1.56-0.64
		c-2.55-2.51-5.38-4.41-8.49-5.68c-3.11-1.27-6.34-1.91-9.68-1.91c-2.36,0-4.62,0.31-6.79,0.92c-2.16,0.61-4.19,1.47-6.07,2.58
		c-1.89,1.1-3.6,2.43-5.15,3.98c-1.55,1.55-2.88,3.27-3.98,5.18c-1.1,1.9-1.96,3.94-2.55,6.12c-0.6,2.18-0.9,4.45-0.9,6.81
		c0,3.4,0.64,6.65,1.93,9.73c1.29,3.08,3.06,5.8,5.31,8.14c2.25,2.35,4.93,4.21,8.03,5.59c3.1,1.38,6.47,2.07,10.12,2.07
		c3.34,0,6.55-0.58,9.61-1.75c3.07-1.17,5.9-3.04,8.51-5.61c0.43-0.43,0.95-0.65,1.56-0.67c0.61-0.01,1.12,0.18,1.52,0.58
		c0.43,0.43,0.65,0.95,0.67,1.56c0.01,0.61-0.19,1.13-0.62,1.56c-2.97,2.98-6.29,5.18-9.96,6.6c-3.67,1.43-7.43,2.14-11.29,2.14
		c-4.14,0-8.02-0.78-11.64-2.35c-3.62-1.56-6.78-3.7-9.48-6.42c-2.7-2.71-4.82-5.89-6.37-9.52c-1.55-3.63-2.32-7.52-2.32-11.66
		c0-2.61,0.34-5.17,1.01-7.68c0.67-2.51,1.63-4.88,2.88-7.08c1.24-2.21,2.75-4.25,4.53-6.12c1.78-1.87,3.78-3.48,6-4.83
		c2.22-1.35,4.63-2.4,7.22-3.15c2.59-0.75,5.34-1.13,8.26-1.13c3.86,0,7.63,0.75,11.29,2.25c3.66,1.5,6.97,3.73,9.91,6.67
		C352.17,66.94,352.39,67.46,352.41,68.05z"/>
	<path d="M418.97,59.95c3.63,1.56,6.81,3.7,9.52,6.42c2.71,2.71,4.86,5.88,6.44,9.5c1.58,3.62,2.37,7.5,2.37,11.64
		c0,2.76-0.36,5.42-1.08,7.98c-0.72,2.56-1.73,4.95-3.01,7.15c-1.29,2.21-2.85,4.23-4.69,6.07s-3.86,3.4-6.07,4.69
		s-4.59,2.29-7.15,3.01c-2.56,0.72-5.22,1.08-7.98,1.08s-5.42-0.36-7.98-1.08s-4.94-1.73-7.15-3.01s-4.22-2.85-6.03-4.69
		s-3.36-3.86-4.65-6.07s-2.29-4.59-2.99-7.15c-0.71-2.56-1.06-5.22-1.06-7.98c0-2.76,0.35-5.41,1.06-7.96
		c0.71-2.54,1.7-4.92,2.99-7.13s2.84-4.22,4.65-6.05c1.81-1.82,3.82-3.39,6.03-4.69c2.21-1.3,4.59-2.31,7.15-3.01
		c2.56-0.71,5.22-1.06,7.98-1.06C411.45,57.6,415.33,58.39,418.97,59.95z M400.54,62.92c-2.18,0.6-4.21,1.45-6.1,2.55
		c-1.89,1.1-3.6,2.43-5.15,3.98c-1.55,1.55-2.88,3.27-3.98,5.15c-1.1,1.89-1.96,3.92-2.55,6.09c-0.6,2.18-0.9,4.45-0.9,6.81
		c0,3.56,0.66,6.88,1.98,9.98c1.32,3.1,3.13,5.8,5.43,8.12c2.3,2.32,5,4.14,8.1,5.47c3.1,1.33,6.42,2,9.98,2
		c3.53,0,6.84-0.67,9.94-2c3.1-1.33,5.8-3.16,8.12-5.47c2.32-2.31,4.14-5.02,5.47-8.12c1.33-3.1,2-6.42,2-9.98
		c0-3.53-0.67-6.84-2-9.94c-1.33-3.1-3.16-5.8-5.47-8.1c-2.32-2.3-5.02-4.12-8.12-5.45c-3.1-1.33-6.41-2-9.94-2
		C404.99,62.02,402.72,62.32,400.54,62.92z"/>
	<path d="M503.84,59.95c3.63,1.56,6.81,3.7,9.52,6.42c2.71,2.71,4.86,5.88,6.44,9.5c1.58,3.62,2.37,7.5,2.37,11.64
		c0,2.76-0.36,5.42-1.08,7.98c-0.72,2.56-1.73,4.95-3.01,7.15c-1.29,2.21-2.85,4.23-4.69,6.07c-1.84,1.84-3.86,3.4-6.07,4.69
		s-4.59,2.29-7.15,3.01c-2.56,0.72-5.22,1.08-7.98,1.08s-5.42-0.36-7.98-1.08s-4.94-1.73-7.15-3.01s-4.22-2.85-6.03-4.69
		s-3.36-3.86-4.65-6.07s-2.29-4.59-2.99-7.15c-0.71-2.56-1.06-5.22-1.06-7.98c0-2.76,0.35-5.41,1.06-7.96
		c0.71-2.54,1.7-4.92,2.99-7.13s2.84-4.22,4.65-6.05c1.81-1.82,3.82-3.39,6.03-4.69c2.21-1.3,4.59-2.31,7.15-3.01
		c2.56-0.71,5.22-1.06,7.98-1.06C496.32,57.6,500.2,58.39,503.84,59.95z M485.41,62.92c-2.18,0.6-4.21,1.45-6.1,2.55
		c-1.89,1.1-3.6,2.43-5.15,3.98c-1.55,1.55-2.88,3.27-3.98,5.15c-1.1,1.89-1.96,3.92-2.55,6.09c-0.6,2.18-0.9,4.45-0.9,6.81
		c0,3.56,0.66,6.88,1.98,9.98c1.32,3.1,3.13,5.8,5.43,8.12c2.3,2.32,5,4.14,8.1,5.47c3.1,1.33,6.42,2,9.98,2
		c3.53,0,6.84-0.67,9.94-2c3.1-1.33,5.8-3.16,8.12-5.47c2.32-2.31,4.14-5.02,5.47-8.12c1.33-3.1,2-6.42,2-9.98
		c0-3.53-0.67-6.84-2-9.94c-1.33-3.1-3.16-5.8-5.47-8.1c-2.32-2.3-5.02-4.12-8.12-5.45c-3.1-1.33-6.41-2-9.94-2
		C489.86,62.02,487.59,62.32,485.41,62.92z"/>
	<path d="M555.56,87.73l31.88-29.07c0.46-0.43,0.98-0.63,1.56-0.6c0.58,0.03,1.09,0.26,1.52,0.69c0.43,0.43,0.64,0.95,0.64,1.56
		c0,0.61-0.25,1.15-0.74,1.61l-21.9,19.87l21.11,31.65c0.4,0.52,0.54,1.08,0.41,1.68c-0.12,0.6-0.43,1.07-0.92,1.4
		c-0.52,0.34-1.07,0.45-1.66,0.35c-0.58-0.11-1.04-0.42-1.38-0.94l-20.84-31.14l-9.71,8.79v21.16c0,0.61-0.21,1.13-0.62,1.54
		c-0.41,0.41-0.93,0.62-1.54,0.62c-0.61,0-1.14-0.21-1.56-0.62c-0.43-0.41-0.64-0.93-0.64-1.54V60.18c0-0.61,0.21-1.13,0.64-1.54
		c0.43-0.41,0.95-0.62,1.56-0.62c0.61,0,1.13,0.21,1.54,0.62c0.41,0.41,0.62,0.93,0.62,1.54V87.73z"/>
	<path d="M630.68,85.64c-2.02-0.78-3.86-1.76-5.52-2.94c-1.66-1.18-3.01-2.61-4.07-4.28c-1.06-1.67-1.59-3.67-1.59-6
		c0-2.33,0.52-4.42,1.56-6.28c1.04-1.85,2.4-3.41,4.07-4.67c1.67-1.26,3.54-2.22,5.61-2.9c2.07-0.67,4.13-1.01,6.19-1.01
		c3.59,0,6.85,0.72,9.8,2.16c2.94,1.44,5.23,3.56,6.85,6.35c0.25,0.43,0.3,0.87,0.16,1.31c-0.14,0.44-0.35,0.79-0.62,1.04
		c-0.34,0.31-0.76,0.48-1.27,0.53s-1.02-0.15-1.54-0.57c-1.81-2.42-3.83-4.1-6.05-5.04c-2.22-0.94-4.65-1.4-7.29-1.4
		c-1.44,0-2.93,0.22-4.46,0.64c-1.53,0.43-2.94,1.08-4.21,1.96c-1.27,0.87-2.32,1.96-3.15,3.27c-0.83,1.3-1.26,2.84-1.29,4.62
		c0,1.2,0.22,2.26,0.67,3.2c0.44,0.94,1.04,1.76,1.79,2.48c0.75,0.72,1.61,1.36,2.58,1.91c0.97,0.55,1.97,1.03,3.01,1.43
		c1.04,0.4,2.08,0.75,3.1,1.06c1.03,0.31,1.99,0.58,2.88,0.83c2.33,0.77,4.59,1.61,6.79,2.53c2.19,0.92,4.14,2.02,5.84,3.29
		c1.7,1.27,3.07,2.79,4.09,4.55c1.03,1.76,1.54,3.87,1.54,6.33c0,2.67-0.53,5.08-1.59,7.24c-1.06,2.16-2.48,4-4.25,5.52
		c-1.78,1.52-3.83,2.68-6.14,3.5c-2.32,0.81-4.71,1.22-7.2,1.22c-2.12,0-4.17-0.28-6.16-0.85c-1.99-0.57-3.83-1.35-5.52-2.35
		c-1.69-1-3.16-2.18-4.42-3.54c-1.26-1.36-2.22-2.83-2.9-4.39c-0.34-0.74-0.38-1.36-0.14-1.86c0.25-0.51,0.61-0.88,1.1-1.13
		c1.01-0.52,1.99-0.15,2.94,1.1c0.58,1.29,1.4,2.47,2.46,3.54c1.06,1.07,2.26,1.99,3.61,2.74c1.35,0.75,2.81,1.33,4.39,1.75
		c1.58,0.41,3.2,0.62,4.85,0.62c1.75,0,3.49-0.28,5.22-0.83c1.73-0.55,3.3-1.37,4.69-2.46c1.39-1.09,2.52-2.45,3.38-4.07
		c0.86-1.63,1.29-3.51,1.29-5.66c0-1.87-0.44-3.46-1.31-4.76c-0.87-1.3-2.02-2.42-3.45-3.36c-1.43-0.94-3.04-1.75-4.85-2.44
		c-1.81-0.69-3.65-1.36-5.52-2C634.7,87.06,632.7,86.42,630.68,85.64z"/>
</g>
</svg>
